HIERARCHY
ROOT Hips
{
  OFFSET 0.0 0.0 0.0
  CHANNELS 6 XPOSITION YPOSITION ZPOSITION ZROTATION XROTATION YROTATION 
  JOINT RightUpLeg
  {
    OFFSET -0.089458 -0.0866707 0.00101652
    CHANNELS 3 ZROTATION XROTATION YROTATION 
    JOINT RightLeg
    {
      OFFSET 0.0 -0.444227 0.013727
      CHANNELS 3 ZROTATION XROTATION YROTATION 
      JOINT RightFoot
      {
        OFFSET 0.00253549 -0.420924 -0.0146059
        CHANNELS 3 ZROTATION XROTATION YROTATION 
        End Site
        {
          OFFSET 0.0004 -0.0441509 0.084991
        }
      }
    }
  }
  JOINT Spine
  {
    OFFSET 0.0 0.118905 0.0
    CHANNELS 3 ZROTATION XROTATION YROTATION 
    JOINT Spine1
    {
      OFFSET 0.0 0.256574 0.00127663
      CHANNELS 3 ZROTATION XROTATION YROTATION 
      End Site
      {
        OFFSET -0.0029 0.2150836 0.02525291
      }
      JOINT RightArm
      {
        OFFSET -0.162727 -0.05365632 0.00102123
        CHANNELS 3 ZROTATION XROTATION YROTATION 
        JOINT RightForeArm
        {
          OFFSET -0.26364 0.00099144 -0.0142434
          CHANNELS 3 ZROTATION XROTATION YROTATION 
          End Site
          {
            OFFSET -0.220324 0.00085362 0.0102216
          }
        }
      }
      JOINT LeftArm
      {
        OFFSET 0.162727 -0.0536563199 0.00102123
        CHANNELS 3 ZROTATION XROTATION YROTATION 
        JOINT LeftForeArm
        {
          OFFSET 0.262597 0.00099144 -0.0142434
          CHANNELS 3 ZROTATION XROTATION YROTATION 
          End Site
          {
            OFFSET 0.220902 0.00085362 0.0102216
          }
        }
      }
    }
  }
  JOINT LeftUpLeg
  {
    OFFSET 0.089458 -0.0866707 0.00101652
    CHANNELS 3 ZROTATION XROTATION YROTATION 
    JOINT LeftLeg
    {
      OFFSET 0.0 -0.444227 0.013727
      CHANNELS 3 ZROTATION XROTATION YROTATION 
      JOINT LeftFoot
      {
        OFFSET -0.00253549 -0.420924 -0.0146059
        CHANNELS 3 ZROTATION XROTATION YROTATION 
        End Site
        {
          OFFSET -0.0004 -0.0441509 0.084991
        }
      }
    }
  }
}
MOTION
Frames: 9
Frame Time: 0.033333
-1.03638 0.984540017775 -1.08794 -0.20170609166 0.344781866165 90.0035746934 2.48005278669 -2.41157651172 0.647371305949 -1.3616521055 13.3951023304 -13.7514051249 0.971968575735 -43.7825507685 1.81226220333 -5.2135666364 2.05566688002 -1.21456003302 3.15110713326 7.15500649996 -1.99620624131 82.8739227094 -23.2150121492 14.2247713853 9.51662209889 64.6649730614 5.91145615589 -110.973068238 -57.7698014717 -40.2722296861 -172.687249314 65.2840067663 174.02305673 -0.0556796587583 -6.63186950482 0.859907529652 1.43665622705 17.7539822096 14.5368043087 -12.0013663718 -44.1677324566 -8.87406693008 
-1.03514223494 0.982805399715 -1.08311608716 -0.292785023396 0.128918246439 90.5650777149 2.9504325469 -2.60198297587 0.65919980621 -1.11488142622 13.8730439638 -14.3969271571 0.787079730492 -44.2806969553 1.81960465669 -4.68143086703 2.72651439992 -1.28129023416 3.1570698884 6.52126825159 -2.03649069703 82.765732513 -23.831843118 13.6741428788 9.59035740607 64.8794683221 5.72112951957 -110.703316747 -57.2740014549 -40.1566697156 -172.549634662 65.6207009414 173.810583206 0.548193063858 -8.00531297143 0.723818144874 1.49476758323 20.283406165 14.050890137 -12.9310507405 -44.7500914607 -9.11049478197 
-1.03345085785 0.980749878885 -1.07819268307 -0.217992410932 -0.101111672544 91.0606489203 3.53537549695 -2.69660500154 0.786234814748 -0.9610601233 14.56004915 -15.1161426616 0.623706461383 -44.8920945086 1.82965549349 -4.23349852353 3.32109816198 -1.3525802269 3.40718607972 6.36531966491 -2.1482927829 82.3325209347 -23.4892357066 13.4799469403 9.81218658239 64.4741580666 5.54191688169 -111.382053135 -57.2110817523 -40.9401265643 -172.394343481 66.0061831578 173.786349695 1.21537111799 -9.73198308606 0.275912428434 1.51765661435 23.8028353046 13.8157207474 -14.2530219015 -44.8890584896 -9.2505187826 
-1.03169872142 0.978348455275 -1.07399760908 -0.198262115513 -0.289993290294 91.545360125 4.00065395963 -3.01498722607 0.814309773723 -0.833876451426 15.5643721183 -15.7321847436 0.496914724974 -45.6469977516 1.84572201941 -3.76022788575 4.08492910248 -1.29793625894 3.73766819781 6.02988523279 -2.13161004585 81.8824456193 -23.3752910758 13.3585872853 9.95482739924 64.1327237402 5.37827366003 -111.757822823 -56.9371536005 -41.3313632151 -172.104470253 66.7289332852 173.285327998 1.56294354332 -12.0117431367 -0.433703111794 1.64568456164 28.0369617787 13.883457441 -14.1953981568 -44.4194317577 -9.10354250317 
-1.02866924563 0.975614948335 -1.07033940735 0.0399329577816 -0.326758597771 92.1246694496 4.35065163572 -3.07901918232 0.689869756821 -0.748542469174 16.7208460882 -16.2769076978 0.475625985826 -46.5737348936 1.87365194359 -3.35888362224 4.73108975739 -1.26391156487 4.14258486369 6.05124238055 -2.14599805278 81.6096546941 -23.6625141908 13.3311931041 9.69896253652 64.1535284964 5.51167664603 -112.61343379 -56.9833734906 -42.0207581136 -172.043845494 66.9773199446 173.425346876 1.42819703776 -14.2752328229 -1.61531124401 1.78386014233 32.4423911047 14.3143356559 -11.7308703901 -43.4537625374 -8.66625927835 
-1.02460085715 0.973463316385 -1.06712675512 0.0781756171664 -0.353902970152 92.4142489798 4.63086868416 -3.1675066309 0.652206386191 -0.725491434499 17.5719747437 -16.5983329851 0.431875662665 -47.3195369095 1.89368851696 -2.95250977818 5.14814452321 -1.18175474116 4.2662847122 5.90422640065 -2.05903885903 81.5455397083 -24.28766433 13.4612467361 10.0063739831 64.4979202947 4.98015815501 -112.74268829 -57.4959382067 -41.9557893543 -172.255786264 66.5361580261 173.859610304 1.16369027819 -16.5187203001 -2.51053207897 1.72616126554 36.1891972418 13.8717052467 -9.10578707409 -42.7460080903 -8.33235608927 
-1.01918688987 0.972053767775 -1.06442713893 0.0129219825304 -0.194806119835 92.486539702 4.67617674401 -3.10906411726 0.575860399278 -0.785541603908 18.0657837603 -16.6434088185 0.406849876226 -47.9434644449 1.91111980005 -2.59586995657 5.34727228516 -1.00954795638 4.08627977238 5.62836103649 -1.81840339717 81.3808775078 -24.5631019536 13.3968892786 9.91227702826 63.964858181 5.01236847336 -111.940154722 -58.1880071244 -40.8503266522 -172.545358964 65.7848098966 174.167201043 0.664146997603 -18.5339368789 -3.40202950034 1.34354516729 38.834840281 12.4612541076 -9.12009802795 -43.1375281939 -8.4258810158 
-1.01253174647 0.970983108055 -1.06230730365 0.0964233880088 0.0838045201357 92.6376712978 4.51792638359 -2.66772269286 0.296329784853 -0.803611189522 18.2885947763 -16.5701003982 0.426139344299 -48.5478712996 1.93294417544 -2.19823875465 5.61525603791 -0.869586868201 3.71996648191 5.48273073121 -1.58373037028 81.480427515 -25.0548209323 13.5637678755 9.63433272527 63.6203229486 5.17541277281 -111.031739563 -59.0811841319 -39.6266436209 -172.387977745 66.3151262744 174.064980432 -0.088123821043 -20.3449615373 -4.48400552974 0.85647007687 40.6514008077 10.5213002371 -9.91770190601 -43.5188542402 -8.56750669579 
-1.0047212139 0.970083281665 -1.06072182753 0.234014100394 0.309789179541 92.9797818129 4.3361157125 -1.92439512648 -0.078063292571 -0.790079944446 18.1860941275 -16.581178965 0.551540496882 -49.0450715052 1.96423071071 -1.79657966211 5.79239955535 -0.801930696182 3.46431634326 5.61974389908 -1.45729439068 81.5823680883 -25.170799252 13.9919362129 9.22205738433 63.0122107163 5.64232578513 -110.637897195 -60.3150099942 -38.9969616511 -172.453096769 66.1469738472 174.504024991 -0.941957151409 -22.2683820812 -5.25855880001 0.755928464988 41.9614754867 9.10276556915 -10.351038989 -43.2749242792 -8.5312025328 
